<?xml version="1.0" encoding="UTF-8"?> <svg xmlns="http://www.w3.org/2000/svg" width="486" height="470" viewBox="0 0 486 470" fill="none"> <rect width="486" height="470" fill="white"></rect> <path d="M243 86C174.25 86 118 139.537 118 204.971C118 285.277 227.375 375.993 232.062 380.454C235.188 381.941 239.875 383.429 243 383.429C246.125 383.429 250.812 381.941 253.938 380.454C258.625 375.993 368 285.277 368 204.971C368 139.537 311.75 86 243 86ZM243 349.224C210.188 319.481 149.25 255.534 149.25 204.971C149.25 155.896 191.438 115.743 243 115.743C294.562 115.743 336.75 155.896 336.75 204.971C336.75 254.047 275.812 319.481 243 349.224ZM243 145.486C208.625 145.486 180.5 172.254 180.5 204.971C180.5 237.689 208.625 264.457 243 264.457C277.375 264.457 305.5 237.689 305.5 204.971C305.5 172.254 277.375 145.486 243 145.486ZM243 234.714C225.812 234.714 211.75 221.33 211.75 204.971C211.75 188.613 225.812 175.229 243 175.229C260.188 175.229 274.25 188.613 274.25 204.971C274.25 221.33 260.188 234.714 243 234.714Z" fill="#F13A2C"></path> </svg> 